<svg width="2278" height="2274" xmlns="http://www.w3.org/2000/svg" xmlns:xlink="http://www.w3.org/1999/xlink" xml:space="preserve" overflow="hidden"><defs><clipPath id="clip0"><rect x="1058" y="100" width="2278" height="2274"/></clipPath><clipPath id="clip1"><rect x="1058" y="100" width="2278" height="2274"/></clipPath></defs><g clip-path="url(#clip0)" transform="translate(-1058 -100)"><g clip-path="url(#clip1)"><rect x="1061" y="101" width="2273" height="2273" fill="#F6F6F4" fill-opacity="1"/><path d="M1252.5 1943.5C1252.5 1916.44 1274.44 1894.5 1301.5 1894.5L1746.5 1894.5C1773.56 1894.5 1795.5 1916.44 1795.5 1943.5L1795.5 2139.5C1795.5 2166.56 1773.56 2188.5 1746.5 2188.5L1301.5 2188.5C1274.44 2188.5 1252.5 2166.56 1252.5 2139.5Z" stroke="#757160" stroke-width="12.6042" stroke-linecap="butt" stroke-linejoin="miter" stroke-miterlimit="8" stroke-opacity="1" fill="#E5E3D6" fill-rule="evenodd" fill-opacity="1"/><path d="M2605.5 1943.5C2605.5 1916.44 2627.44 1894.5 2654.5 1894.5L3099.5 1894.5C3126.56 1894.5 3148.5 1916.44 3148.5 1943.5L3148.5 2139.5C3148.5 2166.56 3126.56 2188.5 3099.5 2188.5L2654.5 2188.5C2627.44 2188.5 2605.5 2166.56 2605.5 2139.5Z" stroke="#757160" stroke-width="12.6042" stroke-linecap="butt" stroke-linejoin="miter" stroke-miterlimit="8" stroke-opacity="1" fill="#E5E3D6" fill-rule="evenodd" fill-opacity="1"/><path d="M2605.5 1139.67C2605.5 1112.51 2627.51 1090.5 2654.67 1090.5L3099.33 1090.5C3126.49 1090.5 3148.5 1112.51 3148.5 1139.67L3148.5 1336.33C3148.5 1363.49 3126.49 1385.5 3099.33 1385.5L2654.67 1385.5C2627.51 1385.5 2605.5 1363.49 2605.5 1336.33Z" stroke="#757160" stroke-width="12.6042" stroke-linecap="butt" stroke-linejoin="miter" stroke-miterlimit="8" stroke-opacity="1" fill="#E5E3D6" fill-rule="evenodd" fill-opacity="1"/><path d="M2605.5 336.501C2605.5 309.438 2627.44 287.5 2654.5 287.5L3099.5 287.5C3126.56 287.5 3148.5 309.438 3148.5 336.501L3148.5 532.499C3148.5 559.562 3126.56 581.5 3099.5 581.5L2654.5 581.5C2627.44 581.5 2605.5 559.562 2605.5 532.499Z" stroke="#757160" stroke-width="12.6042" stroke-linecap="butt" stroke-linejoin="miter" stroke-miterlimit="8" stroke-opacity="1" fill="#E5E3D6" fill-rule="evenodd" fill-opacity="1"/><path d="M1926.5 1139.67C1926.5 1112.51 1948.51 1090.5 1975.67 1090.5L2420.33 1090.5C2447.49 1090.5 2469.5 1112.51 2469.5 1139.67L2469.5 1336.33C2469.5 1363.49 2447.49 1385.5 2420.33 1385.5L1975.67 1385.5C1948.51 1385.5 1926.5 1363.49 1926.5 1336.33Z" stroke="#757160" stroke-width="12.6042" stroke-linecap="butt" stroke-linejoin="miter" stroke-miterlimit="8" stroke-opacity="1" fill="#E5E3D6" fill-rule="evenodd" fill-opacity="1"/><path d="M9.16667-6.49985e-06 9.167 463.129-9.16634 463.129-9.16667 6.49985e-06ZM27.5003 453.962 0.000360892 508.962-27.4997 453.962Z" fill="#633636" fill-rule="nonzero" fill-opacity="1" transform="matrix(1 0 0 -1 2876 1893.96)"/><path d="M1524 1704.5C1524 1674.4 1548.4 1650 1578.5 1650" stroke="#633636" stroke-width="18.3333" stroke-linecap="butt" stroke-linejoin="miter" stroke-miterlimit="8" stroke-opacity="1" fill="none" fill-rule="evenodd"/><path d="M0 0 1242.78 0.000360892" stroke="#633636" stroke-width="18.3333" stroke-linecap="butt" stroke-linejoin="miter" stroke-miterlimit="8" stroke-opacity="1" fill="none" fill-rule="evenodd" transform="matrix(1 0 0 -1 1579 1650)"/><path d="M0 0 0.644915 189.303" stroke="#633636" stroke-width="18.3333" stroke-linecap="butt" stroke-linejoin="miter" stroke-miterlimit="8" stroke-opacity="1" fill="none" fill-rule="evenodd" transform="matrix(1 0 0 -1 1524 1893.3)"/><path d="M2876 1596C2876 1625.82 2851.6 1650 2821.5 1650" stroke="#633636" stroke-width="18.3333" stroke-linecap="butt" stroke-linejoin="miter" stroke-miterlimit="8" stroke-opacity="1" fill="none" fill-rule="evenodd"/><path d="M9.16667-6.49985e-06 9.167 463.129-9.16634 463.129-9.16667 6.49985e-06ZM27.5003 453.962 0.000360892 508.962-27.4997 453.962Z" fill="#633636" fill-rule="nonzero" fill-opacity="1" transform="matrix(1 0 0 -1 2876 1088.96)"/><path d="M2197 898C2197 868.177 2221.4 844 2251.5 844" stroke="#633636" stroke-width="18.3333" stroke-linecap="butt" stroke-linejoin="miter" stroke-miterlimit="8" stroke-opacity="1" fill="none" fill-rule="evenodd"/><path d="M0 0 569.883 1.13248" stroke="#633636" stroke-width="18.3333" stroke-linecap="butt" stroke-linejoin="miter" stroke-miterlimit="8" stroke-opacity="1" fill="none" fill-rule="evenodd" transform="matrix(1 0 0 -1 2252 843.132)"/><path d="M2197 1090.45 2197 898" stroke="#633636" stroke-width="18.3333" stroke-linecap="butt" stroke-linejoin="miter" stroke-miterlimit="8" stroke-opacity="1" fill="none" fill-rule="evenodd"/><path d="M2876 788C2876 817.823 2851.6 842 2821.5 842" stroke="#633636" stroke-width="18.3333" stroke-linecap="butt" stroke-linejoin="miter" stroke-miterlimit="8" stroke-opacity="1" fill="none" fill-rule="evenodd"/></g></g></svg>