<svg width="352" height="454" xmlns="http://www.w3.org/2000/svg" xmlns:xlink="http://www.w3.org/1999/xlink" xml:space="preserve" overflow="hidden"><g transform="translate(-464 -134)"><g><g><g><g><path d="M343.266 106.509 343.266 79.3163 363.002 63.9083 149.419 63.9083 20.447 176.021 105.98 176.021C105.825 178.143 105.761 180.061 105.761 182.238 105.761 203.052 112.97 220.269 127.402 234.024 141.835 247.801 159.607 254.642 180.652 254.642 185.568 254.642 190.389 254.275 195.071 253.62 192.167 260.111 190.702 266.125 190.702 271.736 190.702 281.597 195.194 292.138 204.15 303.332 164.973 305.999 136.186 313.051 117.836 324.465 107.32 330.955 98.8637 339.148 92.4827 348.961 86.1013 358.846 82.9186 369.447 82.9186 380.877 82.9186 390.512 84.9781 399.187 89.1288 406.902 93.2796 414.617 98.6928 420.952 105.418 425.859 112.126 430.82 119.866 434.947 128.604 438.31 137.325 441.648 145.985 444.02 154.628 445.362 163.242 446.702 171.807 447.358 180.296 447.358 193.745 447.358 207.211 445.626 220.785 442.178 234.327 438.699 247.027 433.549 258.901 426.708 270.743 419.912 280.386 410.644 287.782 399.029 295.161 387.366 298.86 374.26 298.86 359.75 298.86 348.749 296.614 338.741 292.12 329.652 287.658 320.593 282.196 313.134 275.691 307.34 269.199 301.535 262.71 296.201 256.204 291.395 249.712 286.557 244.22 281.659 239.759 276.603 235.28 271.564 233.033 266.563 233.033 261.64 233.033 256.726 234.766 251.983 238.242 247.396 241.692 242.792 245.905 238.361 250.834 234.109 255.764 229.866 260.695 225.153 265.609 219.996 270.523 214.856 274.736 208.186 278.2 200.016 281.681 191.849 283.396 182.596 283.396 172.299 283.396 158.866 280.853 147.874 275.86 139.034 275.267 138.013 274.644 137.233 273.988 136.016L330.813 89.4107 330.813 106.504C323.43 107.433 324.199 111.843 324.199 117.124L324.199 245.607C324.199 251.558 329.067 256.426 335.017 256.426L338.999 256.426C344.95 256.426 349.818 251.558 349.818 245.607L349.818 117.124C349.818 111.856 350.595 107.45 343.266 106.509ZM236.06 328.669C237.199 329.418 239.759 331.446 243.767 334.699 247.811 337.938 250.554 340.386 252.021 342.103 253.457 343.765 255.595 346.262 258.388 349.639 261.197 353.008 263.099 355.934 264.099 358.361 265.097 360.834 266.112 363.814 267.14 367.294 268.125 370.734 268.623 374.26 268.623 377.84 268.623 394.864 262.069 407.477 248.995 415.645 235.889 423.814 220.269 427.901 202.124 427.901 192.951 427.901 183.947 426.81 175.101 424.711 166.271 422.597 157.814 419.382 149.747 415.122 141.68 410.871 135.19 404.934 130.274 397.352 125.343 389.723 122.879 380.96 122.879 371.139 122.879 360.834 125.671 351.877 131.289 344.272 136.874 336.658 144.208 330.9 153.289 326.982 162.338 323.041 171.512 320.249 180.811 318.596 190.111 316.895 199.581 316.044 209.209 316.044 213.671 316.044 217.134 316.295 219.598 316.739 220.053 316.958 222.626 318.806 227.322 322.294 232.02 325.751 234.937 327.881 236.06 328.669ZM232.707 228.235C225.31 237.082 214.997 241.505 201.797 241.505 189.955 241.505 179.532 236.747 170.577 227.214 161.59 217.704 155.176 206.915 151.26 194.829 147.328 182.738 145.363 170.879 145.363 159.232 145.363 145.557 148.953 133.917 156.128 124.306 163.305 114.671 173.602 109.843 187.021 109.843 198.88 109.843 209.364 114.873 218.413 124.977 227.495 135.048 234.001 146.359 237.902 158.896 241.819 171.418 243.768 183.391 243.768 194.829 243.768 208.257 240.07 219.404 232.707 228.235Z" fill="#000000" fill-rule="nonzero" fill-opacity="1" transform="matrix(1.00287 0 0 1 447.976 105.115)"/></g></g></g></g></g></svg>